<svg width="32" height="32" viewBox="0 0 32 32" fill="none" xmlns="http://www.w3.org/2000/svg">
<path fill-rule="evenodd" clip-rule="evenodd" d="M16 4.75C9.7868 4.75 4.75 9.7868 4.75 16C4.75 18.984 5.91176 21.6966 7.80764 23.7103C8.59734 22.4881 9.65304 21.4543 10.9007 20.6891C11.5058 20.318 12.1468 20.0158 12.8116 19.7858C11.2672 18.7549 10.25 16.9962 10.25 15C10.25 11.8244 12.8244 9.25 16 9.25C19.1756 9.25 21.75 11.8244 21.75 15C21.75 16.9963 20.7327 18.7549 19.1883 19.7859C19.8531 20.0158 20.494 20.318 21.099 20.6891C22.3468 21.4543 23.4025 22.4882 24.1922 23.7104C26.0882 21.6968 27.25 18.9841 27.25 16C27.25 9.7868 22.2132 4.75 16 4.75ZM23.0725 24.7493C22.3913 23.6167 21.4464 22.6617 20.3148 21.9678C19.0164 21.1715 17.523 20.75 15.9999 20.75C14.4767 20.75 12.9833 21.1715 11.6849 21.9678C10.5534 22.6617 9.60854 23.6167 8.92732 24.7492C10.8596 26.3132 13.3204 27.25 16 27.25C18.6795 27.25 21.1402 26.3132 23.0725 24.7493ZM7.48454 25.4896C9.7421 27.5168 12.727 28.75 16 28.75C23.0416 28.75 28.75 23.0416 28.75 16C28.75 8.95837 23.0416 3.25 16 3.25C8.95837 3.25 3.25 8.95837 3.25 16C3.25 19.7571 4.87509 23.1347 7.46071 25.4681C7.46848 25.4754 7.47642 25.4826 7.48454 25.4896ZM16 19.25C18.3472 19.25 20.25 17.3472 20.25 15C20.25 12.6528 18.3472 10.75 16 10.75C13.6528 10.75 11.75 12.6528 11.75 15C11.75 17.3472 13.6528 19.25 16 19.25Z" fill="#3E3E3E"/>
</svg>
