<svg width="92" height="40" viewBox="0 0 92 40" fill="none" xmlns="http://www.w3.org/2000/svg">
<path fill-rule="evenodd" clip-rule="evenodd" d="M27.946 33.6466V38.0679H1.50012V33.6466H27.946ZM27.946 32.1466V30.1959H1.50012V32.1466H27.946ZM27.946 14.7229V28.6959H1.50012V14.7229C1.50012 7.67187 7.0191 1.90982 13.9729 1.52092V6.36006C9.07889 6.74248 5.22671 10.835 5.22671 15.8272C5.22671 21.0718 9.47835 25.3235 14.723 25.3235C19.9677 25.3235 24.2193 21.0718 24.2193 15.8272C24.2193 10.8349 20.367 6.74237 15.4729 6.36004V1.5209C22.4269 1.90965 27.946 7.67177 27.946 14.7229ZM15.4729 0.0187644C23.2557 0.409188 29.446 6.84316 29.446 14.7229V38.1159C29.446 38.9178 28.7959 39.5679 27.994 39.5679H1.45216C0.650222 39.5679 0.00012207 38.9178 0.00012207 38.1159V33.6466H0V32.1466H0.00012207V30.1959H0V28.6959H0.00012207V14.7229C0.00012207 6.84326 6.19024 0.409357 13.9729 0.0187797V1.61797e-05L14.701 1.62115e-05L14.7231 0L14.7452 1.62134e-05L15.4729 1.62452e-05V0.0187644ZM17.0642 18.6324L17.0476 18.6084L17.0301 18.5851C16.9637 18.4969 16.8706 18.3318 16.7773 18.0501L17.3307 17.4073C17.517 17.1909 17.802 17.017 18.3975 17.017C18.9099 17.017 19.1585 17.1523 19.3057 17.2898L19.3179 17.3012L19.3303 17.3122C19.4201 17.3925 19.5539 17.5584 19.5539 18.0462C19.5539 18.4182 19.4483 18.6151 19.2779 18.7728C19.0834 18.9354 18.7742 19.0753 18.2164 19.0753C17.493 19.0753 17.2211 18.8585 17.0642 18.6324ZM18.3975 15.517C18.1283 15.517 17.8763 15.5417 17.6413 15.5909C17.4314 15.6348 17.2352 15.6985 17.0526 15.7817C16.9037 15.8496 16.7639 15.9306 16.6332 16.0246C16.4731 16.1397 16.3267 16.2744 16.1939 16.4287C16.1536 16.2915 16.1335 16.0758 16.1335 15.7817C16.1335 15.4092 16.1838 15.0857 16.2844 14.8112C16.3292 14.675 16.3833 14.541 16.4467 14.4094C16.4699 14.3612 16.4943 14.3133 16.52 14.2657C16.6768 13.9755 16.88 13.6966 17.1297 13.429C17.4471 13.0903 17.7929 12.8125 18.1671 12.5954C18.2822 12.5287 18.4 12.4677 18.5205 12.4124L18.5484 12.3997L18.2767 11.8704C18.0626 11.9666 17.8591 12.0711 17.666 12.1838C17.4238 12.3252 17.1982 12.4795 16.9892 12.6467C16.8638 12.747 16.7443 12.852 16.6309 12.9616L16.6298 12.9626C16.3467 13.2362 16.1008 13.5387 15.892 13.8702C15.7554 14.0871 15.6359 14.3091 15.5336 14.536L15.5224 14.5609C15.4289 14.7713 15.3501 14.9859 15.286 15.2048C15.251 15.3246 15.2203 15.4456 15.1941 15.568C15.187 15.6009 15.1803 15.634 15.1738 15.6671C15.1664 15.7052 15.1595 15.7434 15.1529 15.7817C15.1023 16.0783 15.077 16.3822 15.077 16.6934L15.0773 16.7562C15.0812 17.2166 15.1289 17.6466 15.2202 18.0462C15.2407 18.1359 15.2634 18.2242 15.2883 18.3109C15.3986 18.6946 15.5336 19.0183 15.6932 19.2819L15.703 19.298C15.7443 19.365 15.7872 19.4281 15.8316 19.4872C16.3348 20.2126 17.1297 20.5753 18.2164 20.5753C19.0616 20.5753 19.7458 20.3498 20.269 19.8989C20.7923 19.4284 21.0539 18.8108 21.0539 18.0462C21.0539 17.2423 20.8124 16.6248 20.3294 16.1934C19.8464 15.7425 19.2025 15.517 18.3975 15.517ZM8.60345 18.3109C8.716 18.7025 8.85425 19.0315 9.01819 19.298C9.05944 19.365 9.10231 19.4281 9.1468 19.4872C9.64991 20.2126 10.4448 20.5753 11.5315 20.5753C12.3767 20.5753 13.061 20.3498 13.5842 19.8989C13.7743 19.728 13.9298 19.5376 14.0508 19.3279C14.1802 19.1038 14.2701 18.8575 14.3206 18.589C14.3529 18.4171 14.369 18.2362 14.369 18.0462C14.369 17.5134 14.263 17.0625 14.0508 16.6934C13.9429 16.5055 13.8074 16.3389 13.6446 16.1934C13.6291 16.179 13.6135 16.1648 13.5977 16.1508C13.1202 15.7283 12.4918 15.517 11.7126 15.517C11.4435 15.517 11.1914 15.5416 10.9565 15.5909C10.7466 15.6348 10.5504 15.6985 10.3678 15.7817C10.2189 15.8496 10.0791 15.9306 9.94832 16.0246C9.78828 16.1397 9.64185 16.2744 9.50904 16.4287C9.46879 16.2915 9.44867 16.0758 9.44867 15.7817C9.44867 15.4092 9.49898 15.0857 9.5996 14.8112C9.64434 14.675 9.69842 14.541 9.76182 14.4094C9.78502 14.3612 9.80947 14.3133 9.83517 14.2657C9.99192 13.9755 10.1951 13.6966 10.4448 13.429C10.7622 13.0903 11.108 12.8125 11.4822 12.5954C11.5973 12.5287 11.7151 12.4677 11.8356 12.4124L11.8636 12.3997L11.5919 11.8704C11.3778 11.9666 11.1742 12.0711 10.9812 12.1838C10.739 12.3252 10.5134 12.4795 10.3043 12.6467C10.1789 12.747 10.0595 12.852 9.94601 12.9616L9.94494 12.9626C9.66188 13.2362 9.41596 13.5387 9.20718 13.8702C9.07051 14.0871 8.95103 14.3091 8.84874 14.536L8.83757 14.5609C8.74404 14.7713 8.66525 14.9859 8.60118 15.2048C8.56612 15.3246 8.53547 15.4456 8.50922 15.568C8.49403 15.6388 8.48032 15.71 8.46809 15.7817C8.41746 16.0783 8.39215 16.3822 8.39215 16.6934L8.39242 16.7562C8.39726 17.32 8.46761 17.8382 8.60345 18.3109ZM11.5315 19.0753C12.0894 19.0753 12.3986 18.9354 12.593 18.7728C12.7635 18.6151 12.869 18.4182 12.869 18.0462C12.869 17.5584 12.7353 17.3925 12.6454 17.3122L12.633 17.3012L12.6209 17.2899C12.4736 17.1523 12.225 17.017 11.7126 17.017C11.1171 17.017 10.8322 17.1909 10.6458 17.4073L10.0925 18.0501C10.1858 18.3318 10.2789 18.4969 10.3452 18.5851L10.3628 18.6084L10.3794 18.6324C10.5362 18.8585 10.8081 19.0753 11.5315 19.0753ZM6.72671 15.8272C6.72671 20.2434 10.3068 23.8235 14.723 23.8235C19.1392 23.8235 22.7193 20.2434 22.7193 15.8272C22.7193 11.4109 19.1392 7.83087 14.723 7.83087C10.3068 7.83087 6.72671 11.4109 6.72671 15.8272ZM43.9567 11.003C43.3995 11.9147 42.6398 12.3705 41.6775 12.3705C40.7153 12.3705 39.9492 11.9147 39.3794 11.003C38.8223 10.0914 38.5438 8.81257 38.5438 7.16654C38.5438 5.59649 38.8223 4.36197 39.3794 3.46298C39.9492 2.564 40.7153 2.11451 41.6775 2.11451C42.6398 2.11451 43.3995 2.564 43.9567 3.46298C44.5264 4.36197 44.8113 5.59649 44.8113 7.16654C44.8113 8.81257 44.5264 10.0914 43.9567 11.003ZM42.4183 15.7132C43.1147 16.2703 44.0136 16.5489 45.1152 16.5489C45.3811 16.5489 45.628 16.5236 45.8559 16.4729C46.0838 16.4223 46.3054 16.359 46.5207 16.283L46.2168 15.0105C46.1028 15.0611 45.9635 15.1054 45.7989 15.1434C45.647 15.1814 45.4761 15.2004 45.2861 15.2004C44.6404 15.2004 44.0833 15.0675 43.6148 14.8016C43.1463 14.5357 42.8044 14.1305 42.5892 13.586C43.1716 13.4721 43.6971 13.2442 44.1656 12.9023C44.6341 12.5478 45.0329 12.0983 45.3621 11.5538C45.704 11.0094 45.9635 10.37 46.1408 9.63558C46.3307 8.88854 46.4257 8.06552 46.4257 7.16654C46.4257 6.16626 46.3117 5.26728 46.0838 4.46959C45.8559 3.6719 45.533 3.00083 45.1152 2.45638C44.6974 1.89926 44.1972 1.47509 43.6148 1.18387C43.0323 0.892652 42.3866 0.747042 41.6775 0.747042C40.9685 0.747042 40.3227 0.892652 39.7403 1.18387C39.1579 1.47509 38.6577 1.89926 38.2399 2.45638C37.822 3.00083 37.4992 3.6719 37.2713 4.46959C37.0434 5.26728 36.9294 6.16626 36.9294 7.16654C36.9294 8.09085 37.0244 8.92652 37.2143 9.67356C37.4042 10.4206 37.6701 11.0727 38.012 11.6298C38.3665 12.1743 38.7843 12.6174 39.2655 12.9593C39.7593 13.3012 40.3101 13.5227 40.9178 13.624C41.2217 14.4597 41.7219 15.1561 42.4183 15.7132ZM51.3943 13.4151C51.9135 13.5924 52.4769 13.681 53.0847 13.681C53.6924 13.681 54.2496 13.5924 54.756 13.4151C55.2752 13.2378 55.7183 12.953 56.0855 12.5604C56.4527 12.1553 56.7376 11.6425 56.9402 11.022C57.1554 10.4016 57.263 9.64191 57.263 8.74293V0.993946H55.7246V8.78091C55.7246 9.42666 55.655 9.97745 55.5157 10.4333C55.3891 10.8764 55.2055 11.2373 54.9649 11.5158C54.7244 11.7817 54.4458 11.978 54.1293 12.1046C53.8127 12.2312 53.4645 12.2945 53.0847 12.2945C52.7048 12.2945 52.3566 12.2312 52.0401 12.1046C51.7235 11.978 51.445 11.7817 51.2044 11.5158C50.9765 11.2373 50.7929 10.8764 50.6536 10.4333C50.527 9.97745 50.4637 9.42666 50.4637 8.78091V0.993946H48.8683V8.74293C48.8683 9.64191 48.9696 10.4016 49.1722 11.022C49.3875 11.6425 49.6787 12.1553 50.0459 12.5604C50.4257 12.953 50.8752 13.2378 51.3943 13.4151ZM64.4538 13.681C63.7448 13.681 63.099 13.5354 62.5166 13.2442C61.9341 12.9403 61.4277 12.5098 60.9972 11.9527C60.5793 11.3956 60.2501 10.7182 60.0096 9.92047C59.7816 9.11012 59.6677 8.19214 59.6677 7.16654C59.6677 6.16626 59.7816 5.26728 60.0096 4.46959C60.2501 3.6719 60.5793 3.00083 60.9972 2.45638C61.4277 1.91192 61.9341 1.49408 62.5166 1.20286C63.099 0.911644 63.7448 0.766035 64.4538 0.766035C65.1502 0.766035 65.7896 0.911644 66.3721 1.20286C66.9672 1.49408 67.4736 1.91192 67.8915 2.45638C68.322 3.00083 68.6512 3.6719 68.8791 4.46959C69.1197 5.26728 69.24 6.16626 69.24 7.16654C69.24 8.19214 69.1197 9.11012 68.8791 9.92047C68.6512 10.7182 68.322 11.3956 67.8915 11.9527C67.4736 12.5098 66.9672 12.9403 66.3721 13.2442C65.7896 13.5354 65.1502 13.681 64.4538 13.681ZM64.4538 12.2945C64.9223 12.2945 65.3528 12.1806 65.7453 11.9527C66.1378 11.7121 66.467 11.3702 66.7329 10.9271C67.0115 10.4839 67.2267 9.94579 67.3787 9.31271C67.5306 8.67962 67.6066 7.96423 67.6066 7.16654C67.6066 6.38151 67.5306 5.67879 67.3787 5.05836C67.2267 4.43794 67.0115 3.91248 66.7329 3.48198C66.467 3.05148 66.1378 2.72227 65.7453 2.49436C65.3528 2.26645 64.9223 2.15249 64.4538 2.15249C63.9727 2.15249 63.5358 2.26645 63.1433 2.49436C62.7635 2.72227 62.4343 3.05148 62.1557 3.48198C61.8898 3.91248 61.6809 4.43794 61.529 5.05836C61.377 5.67879 61.301 6.38151 61.301 7.16654C61.301 7.96423 61.377 8.67962 61.529 9.31271C61.6809 9.94579 61.8898 10.4839 62.1557 10.9271C62.4343 11.3702 62.7635 11.7121 63.1433 11.9527C63.5358 12.1806 63.9727 12.2945 64.4538 12.2945ZM75.0443 2.32343V13.4531H76.6396V2.32343H80.7421V0.993946H70.9419V2.32343H75.0443ZM83.6975 13.4531V0.993946H91.4085V2.32343H85.2929V6.2359H90.4588V7.58438H85.2929V12.1046H91.5984V13.4531H83.6975ZM77.5358 40C77.0927 40 76.716 39.856 76.4058 39.5679C76.0956 39.2799 75.9405 38.8699 75.9405 38.3381C75.9405 38.0279 75.9626 37.7177 76.0069 37.4075C76.0734 37.0973 76.151 36.6763 76.2396 36.1445L78.8986 22.9162C79.1201 21.8526 79.3307 20.8001 79.5301 19.7586C79.7295 18.695 79.9068 17.6315 80.0619 16.5679L76.439 16.4349L76.5387 15.7702L81.624 14.8063L81.9896 15.1054L77.8017 35.7789C77.7131 36.1334 77.6356 36.4879 77.5691 36.8425C77.5248 37.197 77.5026 37.4851 77.5026 37.7066C77.5026 38.2827 77.8128 38.5708 78.4332 38.5708C78.8986 38.5708 79.4414 38.3271 80.0619 37.8396C80.6823 37.3521 81.3359 36.6985 82.0228 35.8786L82.5214 36.2774C81.8345 37.2746 81.0811 38.1498 80.2613 38.9032C79.4636 39.6344 78.5551 40 77.5358 40ZM42.2381 32.422C42.3489 34.4383 42.4264 36.8646 42.4708 39.7009L42.6702 39.8338L43.202 39.7673C44.2434 38.3935 45.2184 36.9865 46.1268 35.5462C47.0575 34.106 47.8995 32.71 48.6529 31.3584C49.4284 29.9846 50.082 28.7437 50.6138 27.6358C50.6803 28.6772 50.7468 29.8959 50.8133 31.2919C50.8797 32.6878 50.9462 34.1281 51.0127 35.6127C51.1013 37.0751 51.1678 38.4379 51.2121 39.7009L51.3783 39.8338L51.9101 39.7673C53.5719 37.9725 55.0233 36.211 56.2641 34.4826C57.505 32.7543 58.5353 31.0371 59.3552 29.3309C60.0199 28.0236 60.4298 27.0265 60.585 26.3396C60.7401 25.6527 60.8176 25.1209 60.8176 24.7442C60.8176 24.2789 60.7622 23.9465 60.6514 23.7471C60.5185 23.5698 60.2747 23.4701 59.9202 23.4479C59.5878 23.4479 59.2887 23.5809 59.0228 23.8468C58.7569 24.1127 58.624 24.5226 58.624 25.0766C58.624 25.5197 58.6794 26.0183 58.7902 26.5722L58.9896 27.6358C58.9009 27.8574 58.8123 28.0679 58.7237 28.2673C58.6572 28.4667 58.5686 28.6772 58.4578 28.8988C57.9038 30.0289 57.3277 31.0703 56.7295 32.0231C56.1533 32.9759 55.5218 33.9065 54.8349 34.815C54.1702 35.7235 53.4058 36.6984 52.5416 37.7399C52.5194 36.8757 52.4862 35.8675 52.4419 34.7153C52.3976 33.5409 52.3422 32.3112 52.2757 31.026C52.2314 29.7187 52.176 28.4557 52.1095 27.237C52.043 25.9961 51.9876 24.8771 51.9433 23.88H51.1456C50.082 26.4282 48.9298 28.8213 47.689 31.0592C46.4703 33.275 45.174 35.4133 43.8002 37.474C43.8002 35.3025 43.7559 33.264 43.6673 31.3584C43.5787 29.4306 43.4346 27.6691 43.2352 26.0737C43.1023 25.0987 42.8696 24.4229 42.5372 24.0462C42.2049 23.6474 41.7395 23.4479 41.1413 23.4479C40.4544 23.4479 39.8007 23.736 39.1803 24.3121C38.582 24.8661 37.9948 25.7856 37.4187 27.0708L37.9838 27.4032C38.5599 26.3839 39.0363 25.7081 39.413 25.3757C39.8118 25.0433 40.1885 24.8771 40.543 24.8771C40.8532 24.8771 41.108 24.999 41.3075 25.2427C41.5069 25.4643 41.6509 25.9629 41.7395 26.7384C41.9833 28.4889 42.1495 30.3834 42.2381 32.422ZM68.2521 25.143C69.0276 24.6556 69.781 24.4118 70.5122 24.4118C71.1548 24.4118 71.6644 24.578 72.0411 24.9104C72.4399 25.2427 72.6394 25.7302 72.6394 26.3728C72.6394 27.5915 71.9081 28.788 70.4457 29.9624C68.9833 31.1368 66.7675 32.145 63.7983 32.987C63.8648 31.9012 64.1085 30.8487 64.5295 29.8295C64.9727 28.8102 65.5155 27.8906 66.1581 27.0708C66.8007 26.2509 67.4987 25.6084 68.2521 25.143ZM64.7622 39.4017C65.4934 39.8006 66.2911 40 67.1552 40C68.3518 40 69.4264 39.6565 70.3792 38.9697C71.332 38.2606 72.163 37.3632 72.872 36.2774L72.3402 35.8786C71.742 36.6541 71.0551 37.2967 70.2795 37.8064C69.5261 38.316 68.6509 38.5708 67.6538 38.5708C66.5016 38.5708 65.5709 38.1941 64.8619 37.4407C64.175 36.6652 63.8094 35.4687 63.7651 33.8511C67.2882 32.8762 69.8696 31.7018 71.5093 30.328C73.1711 28.9321 74.0021 27.5472 74.0021 26.1734C74.0021 25.2649 73.714 24.5891 73.1379 24.1459C72.5618 23.6806 71.8195 23.4479 70.911 23.4479C69.781 23.4479 68.6952 23.7471 67.6538 24.3453C66.6345 24.9436 65.726 25.7524 64.9284 26.7717C64.1307 27.7909 63.4992 28.9321 63.0338 30.1951C62.5685 31.4359 62.3359 32.7211 62.3359 34.0506C62.3359 35.4687 62.5574 36.6209 63.0006 37.5072C63.4438 38.3714 64.031 39.0029 64.7622 39.4017ZM85.0721 39.5679C85.3823 39.856 85.759 40 86.2021 40C87.2214 40 88.1299 39.6344 88.9276 38.9032C89.7474 38.1498 90.5008 37.2746 91.1877 36.2774L90.6891 35.8786C90.0023 36.6985 89.3486 37.3521 88.7282 37.8396C88.1077 38.3271 87.5649 38.5708 87.0995 38.5708C86.4791 38.5708 86.1689 38.2827 86.1689 37.7066C86.1689 37.4851 86.1911 37.197 86.2354 36.8425C86.3019 36.4879 86.3794 36.1334 86.468 35.7789L90.6559 15.1054L90.2903 14.8063L85.205 15.7702L85.1053 16.4349L88.7282 16.5679C88.5731 17.6315 88.3958 18.695 88.1964 19.7586C87.9969 20.8001 87.7864 21.8526 87.5649 22.9162L84.9059 36.1445C84.8173 36.6763 84.7397 37.0973 84.6732 37.4075C84.6289 37.7177 84.6068 38.0279 84.6068 38.3381C84.6068 38.8699 84.7619 39.2799 85.0721 39.5679Z" fill="#3E3E3E"/>
</svg>
