<svg width="32" height="32" viewBox="0 0 32 32" fill="none" xmlns="http://www.w3.org/2000/svg">
<path fill-rule="evenodd" clip-rule="evenodd" d="M4.75 16C4.75 9.7868 9.7868 4.75 16 4.75C22.2132 4.75 27.25 9.7868 27.25 16C27.25 22.2132 22.2132 27.25 16 27.25C9.7868 27.25 4.75 22.2132 4.75 16ZM16 3.25C8.95837 3.25 3.25 8.95837 3.25 16C3.25 23.0416 8.95837 28.75 16 28.75C23.0416 28.75 28.75 23.0416 28.75 16C28.75 8.95837 23.0416 3.25 16 3.25ZM22.0179 13.0425C22.3175 12.7565 22.3285 12.2818 22.0425 11.9821C21.7565 11.6825 21.2818 11.6715 20.9821 11.9575L14.1666 18.4632L11.0179 15.4575C10.7182 15.1715 10.2435 15.1825 9.95749 15.4821C9.67148 15.7818 9.68252 16.2565 9.98214 16.5425L13.6488 20.0425C13.9386 20.3192 14.3947 20.3192 14.6845 20.0425L22.0179 13.0425Z" fill="#3E3E3E"/>
</svg>
