<svg width="32" height="32" viewBox="0 0 32 32" fill="none" xmlns="http://www.w3.org/2000/svg">
<path fill-rule="evenodd" clip-rule="evenodd" d="M13 2.25C12.2707 2.25 11.5712 2.53973 11.0555 3.05546C10.5397 3.57118 10.25 4.27065 10.25 5V6.25L7.00294 6.25001L7 6.25L6.99706 6.25001L4.99951 6.25001C4.5853 6.25001 4.24951 6.58579 4.24951 7.00001C4.24951 7.41422 4.5853 7.75001 4.99951 7.75001L6.25 7.75001V26C6.25 26.4641 6.43437 26.9092 6.76256 27.2374C7.09075 27.5656 7.53587 27.75 8 27.75H24C24.4641 27.75 24.9092 27.5656 25.2374 27.2374C25.5656 26.9092 25.75 26.4641 25.75 26V7.75L26.9995 7.75C27.4137 7.75 27.7495 7.41421 27.7495 7C27.7495 6.58579 27.4137 6.25 26.9995 6.25L25.0009 6.25L25 6.25L24.9991 6.25L21.75 6.25V5C21.75 4.27065 21.4603 3.57118 20.9445 3.05546C20.4288 2.53973 19.7293 2.25 19 2.25H13ZM20.25 6.25V5C20.25 4.66848 20.1183 4.35054 19.8839 4.11612C19.6495 3.8817 19.3315 3.75 19 3.75H13C12.6685 3.75 12.3505 3.8817 12.1161 4.11612C11.8817 4.35054 11.75 4.66848 11.75 5V6.25L20.25 6.25ZM7.75 26V7.75001L24.25 7.75V26C24.25 26.0663 24.2237 26.1299 24.1768 26.1768C24.1299 26.2237 24.0663 26.25 24 26.25H8C7.93369 26.25 7.87011 26.2237 7.82322 26.1768C7.77634 26.1299 7.75 26.0663 7.75 26ZM13 12.25C13.4142 12.25 13.75 12.5858 13.75 13V21C13.75 21.4142 13.4142 21.75 13 21.75C12.5858 21.75 12.25 21.4142 12.25 21V13C12.25 12.5858 12.5858 12.25 13 12.25ZM19.75 13C19.75 12.5858 19.4142 12.25 19 12.25C18.5858 12.25 18.25 12.5858 18.25 13V21C18.25 21.4142 18.5858 21.75 19 21.75C19.4142 21.75 19.75 21.4142 19.75 21V13Z" fill="#3E3E3E"/>
</svg>
