<svg xmlns="http://www.w3.org/2000/svg" width="180" height="187" viewBox="0 0 180 187" fill="none">
<path id="quotes" fill-rule="evenodd" clip-rule="evenodd" d="M64.6368 156.653C61.4757 175.819 47.251 187 29.8652 187C10.899 187 -4.90626 171.028 1.41583 131.097C10.899 81.5838 34.6068 35.2645 83.603 1.72299C91.5056 -3.06866 91.5056 3.3202 86.7641 6.51463C61.4757 24.084 47.251 36.8617 45.6705 72.0005C44.09 91.9657 50.412 104.743 56.339 116.723C62.266 128.702 67.7978 139.882 64.6368 156.653ZM154.637 156.653C151.476 175.819 137.251 187 119.865 187C100.899 187 85.0937 171.028 91.4158 131.097C100.899 81.5838 124.607 35.2645 173.603 1.72299C181.506 -3.06866 181.506 3.3202 176.764 6.51463C151.476 24.084 137.251 36.8617 135.67 72.0005C134.09 91.9657 140.412 104.743 146.339 116.723C152.266 128.702 157.798 139.882 154.637 156.653Z" fill="#333"/>
</svg>