<svg width="32" height="32" viewBox="0 0 32 32" fill="none" xmlns="http://www.w3.org/2000/svg">
<path fill-rule="evenodd" clip-rule="evenodd" d="M7.75 4C7.75 3.58579 7.41421 3.25 7 3.25C6.58579 3.25 6.25 3.58579 6.25 4V10C6.25 10.4142 6.58579 10.75 7 10.75H13C13.4142 10.75 13.75 10.4142 13.75 10C13.75 9.58579 13.4142 9.25 13 9.25H8.58403C10.4514 7.29336 13.0834 6.07581 16 6.07581C21.6609 6.07581 26.25 10.6649 26.25 16.3258C26.25 21.9867 21.6609 26.5758 16 26.5758C10.3391 26.5758 5.75 21.9867 5.75 16.3258C5.75 15.9116 5.41421 15.5758 5 15.5758C4.58579 15.5758 4.25 15.9116 4.25 16.3258C4.25 22.8152 9.51065 28.0758 16 28.0758C22.4893 28.0758 27.75 22.8152 27.75 16.3258C27.75 9.83646 22.4893 4.57581 16 4.57581C12.7846 4.57581 9.8709 5.86787 7.75 7.95927V4Z" fill="#3E3E3E"/>
</svg>
