<svg width="32" height="32" viewBox="0 0 32 32" fill="none" xmlns="http://www.w3.org/2000/svg">
<path fill-rule="evenodd" clip-rule="evenodd" d="M11.0002 4.24915C10.586 4.24915 10.2502 4.58493 10.2502 4.99915V10.2493H5C4.58579 10.2493 4.25 10.5851 4.25 10.9993V26.9993C4.25 27.4135 4.58579 27.7493 5 27.7493H21C21.4142 27.7493 21.75 27.4135 21.75 26.9993V21.7491H27.0002C27.4145 21.7491 27.7502 21.4134 27.7502 20.9991V4.99915C27.7502 4.58493 27.4145 4.24915 27.0002 4.24915H11.0002ZM21.75 20.2491H26.2502V5.74915H11.7502V10.2493H21C21.4142 10.2493 21.75 10.5851 21.75 10.9993V20.2491ZM5.75 26.2493V11.7493H20.25V26.2493H5.75Z" fill="#3E3E3E"/>
</svg>
