<svg width="102" height="74" viewBox="0 0 102 74" fill="none" xmlns="http://www.w3.org/2000/svg">
<path d="M78.6743 73.454C69.7411 73.454 63.2066 70.4123 59.0709 64.329C57.2511 61.8628 55.7623 58.5745 54.6043 54.4641C53.4462 50.3538 52.8672 45.8324 52.8672 40.8999C52.8672 32.3504 55.1005 24.4585 59.5671 17.2242C64.0338 9.99001 70.5683 4.39992 79.1706 0.453973L81.4039 4.89317C77.1028 6.86613 73.2151 9.74338 69.7411 13.5249C66.4325 17.142 64.1165 21.0058 62.793 25.1161C61.9659 27.4179 61.5523 30.1308 61.5523 33.2547C61.5523 35.7209 61.7177 37.5294 62.0486 38.6803C66.3498 33.5835 72.388 31.0351 80.1632 31.0351C86.7804 31.0351 92.0742 32.9258 96.0445 36.7074C100.015 40.3245 102 45.5035 102 52.2445C102 58.6567 99.8494 63.8357 95.5482 67.7817C91.247 71.5632 85.6224 73.454 78.6743 73.454ZM25.8071 73.454C16.8739 73.454 10.3394 70.4123 6.20364 64.329C4.38391 61.8628 2.89503 58.5745 1.73702 54.4641C0.57901 50.3538 3.9671e-06 45.8324 3.5359e-06 40.8999C2.78847e-06 32.3504 2.23331 24.4585 6.69992 17.2242C11.1665 9.99001 17.701 4.39992 26.3034 0.453977L28.5367 4.89317C24.2355 6.86614 20.3479 9.74338 16.8739 13.5249C13.5653 17.142 11.2493 21.0058 9.92581 25.1161C9.09866 27.4179 8.68509 30.1308 8.68509 33.2547C8.68509 35.7209 8.85052 37.5294 9.18138 38.6803C13.4826 33.5835 19.5208 31.0351 27.296 31.0351C33.9132 31.0351 39.207 32.9258 43.1773 36.7074C47.1476 40.3245 49.1328 45.5035 49.1328 52.2445C49.1328 58.6567 46.9822 63.8357 42.681 67.7817C38.3798 71.5632 32.7552 73.454 25.8071 73.454Z" fill="white"/>
</svg>
